<?xml version="1.0" standalone="no"?>
<!DOCTYPE svg PUBLIC "-//W3C//DTD SVG 20010904//EN" "http://www.w3.org/TR/2001/REC-SVG-20010904/DTD/svg10.dtd">
<!-- Created using Krita: https://krita.org -->
<svg xmlns="http://www.w3.org/2000/svg" 
    xmlns:xlink="http://www.w3.org/1999/xlink"
    xmlns:krita="http://krita.org/namespaces/svg/krita"
    xmlns:sodipodi="http://sodipodi.sourceforge.net/DTD/sodipodi-0.dtd"
    width="122.88pt"
    height="122.88pt"
    viewBox="0 0 122.88 122.88">
<defs/>
<circle id="shape0" transform="translate(7.68, 7.68)" r="53.76" cx="53.76" cy="53.76" fill="#77b3fe" fill-rule="evenodd" stroke="#000000" stroke-width="7.68" stroke-linecap="square" stroke-linejoin="bevel"/><g id="group0" transform="matrix(0.856552515328739 0 0 0.856552515328739 22.8955650864644 22.8955222588386)" fill="#000000">
  <path id="shape0" transform="translate(21.043, 26.593928111318)" fill="#000000" stroke-opacity="0" stroke="#000000" stroke-width="0" stroke-linecap="square" stroke-linejoin="bevel" d="M28.04 44.8951L33.816 22.9351L38.002 7.68808C41.499 -8.49192 5.298 5.24908 0 9.38308L0.425 14.2361C5.249 10.8411 23.516 6.49208 19.874 18.5111L18.24 24.6461L18.24 24.6461L9.911 55.7171C6.414 71.8971 42.615 58.1561 47.913 54.0221L47.488 49.1691C42.665 52.5651 24.398 56.9141 28.04 44.8951Z" sodipodi:nodetypes="cccccccccccc"/>
  <circle id="shape1" transform="translate(42.67, 0)" r="11.201" cx="11.201" cy="11.201" fill="#000000" stroke-opacity="0" stroke="#000000" stroke-width="0" stroke-linecap="square" stroke-linejoin="bevel"/>
 </g>
</svg>
